<svg xmlns="http://www.w3.org/2000/svg" xmlns:xlink="http://www.w3.org/1999/xlink" width="100%" height="100%" viewBox="-133.55563354492188 -50.040138244628906 766.8983764648438 350.9797058105469" preserveAspectRatio="xMidYMid meet" ><rect id="svgEditorBackground" x="0" y="0" width="1340" height="660" style="fill:none;stroke:none"/><defs id="svgEditorDefs"><symbol id="1f4bb" viewBox="0 0 64 64" preserveAspectRatio="xMidYMid meet"><rect x="0" y="0" width="64" height="64" style="stroke:none;fill:none;"/><g xmlns="http://www.w3.org/2000/svg"><path d="M64,4c0-2-2-4-4-4H4C2,0,0,2,0,4v41h64V4z" fill="#212528"/><path d="M0,45v4c0,2,2,4,4,4h56c2,0,4-2,4-4v-4H0z" fill="#ddd"/><path d="m24 57c0 2.777-3.603 4-8 4v3h32v-3c-4.397 0-8-1.223-8-4v-4h-16v4" fill="#bfbebe"/><path d="m4 4h56v38h-56z" fill="#3e4347"/><g fill="#94989b"><circle cx="32" cy="49" r="1"/><path d="m16 61h32v3h-32z"/></g><g fill="#636c72"><path d="m56 42h-18l-14-38h18z"/><path d="m29.5 42h-5l-14-38h5z"/></g></g></symbol><symbol id="1f615" viewBox="0 0 64 64" preserveAspectRatio="xMidYMid meet"><rect x="0" y="0" width="64" height="64" style="stroke:none;fill:none;"/><g xmlns="http://www.w3.org/2000/svg"><path d="m2.452 37.21c2.877 16.32 18.439 27.21 34.754 24.334 16.315-2.877 27.21-18.432 24.333-34.751-2.877-16.321-18.435-27.21-34.753-24.336-16.314 2.877-27.21 18.433-24.334 34.753" fill="#ffdd67"/><circle cx="42.38" cy="24.677" fill="#fff" r="7"/><circle cx="42.38" cy="24.677" fill="#664e27" r="3.5"/><path d="m18.17 19.807c-4.893.863-8.162 5.535-7.301 10.428.863 4.896 5.533 8.162 10.426 7.298 4.898-.863 8.164-5.527 7.301-10.425-.862-4.893-5.53-8.164-10.426-7.301" fill="#fff"/><g fill="#664e27"><circle cx="19.731" cy="28.67" r="4.5"/><path d="m44.518 44.777c-1.958-.732-3.782-1.061-5.61-1.171-1.823-.113-3.618.02-5.387.327-1.77.32-3.5.81-5.173 1.537-1.68.73-3.281 1.663-4.873 3.02.417-2.082 1.833-3.911 3.543-5.222 1.729-1.322 3.799-2.18 5.934-2.554 2.133-.372 4.372-.277 6.446.374 2.055.65 4.01 1.882 5.12 3.692"/></g></g></symbol><symbol id="1f4aa" viewBox="0 0 64 64" preserveAspectRatio="xMidYMid meet"><rect x="0" y="0" width="64" height="64" style="stroke:none;fill:none;"/><g xmlns="http://www.w3.org/2000/svg"><path d="m2.131 42.22c-.926-6.793 3.287-17.744 5.251-32.465.352-2.636 14.03-5.406 20.39-5.406 1.65 0 3.02 7.47 2.609 10.07-.299 1.888-2.961 1.39-2.961 1.39-.9 2.509-3.561 1.534-3.561 1.534-.779 2.138-3.201 1.142-3.201 1.142-1 1.991-3.221 1.017-3.221 1.017-2 8.667 1.711 7.895 4.42 21.04 0 0 .76-.136 2.885-4.421 8.602-17.347 38.805-11.799 37.01 6.757-.4 4.146 3.953 10.897-12.285 15.969-12.885 4.02-28.73-3.692-28.73-3.692-5.402 1.66-15.88 1.551-16.189-2.443-.361-4.637-1.944-6.996-2.419-10.487" fill="#ffdd67"/><g fill="#eba352"><path d="m61.754 42.869c.426-4.399-.906-7.96-3.26-10.648 1.426 2.385 2.146 5.285 1.818 8.685-.4 4.147 3.953 10.897-12.285 15.969-12.885 4.02-28.732-3.691-28.732-3.691-4.218 1.296-11.605 1.517-14.729-.355.411 3.877 10.827 3.96 16.17 2.318 0 0 15.846 7.716 28.73 3.692 16.239-5.072 11.886-11.823 12.286-15.97"/><path d="m16.263 19.379c-2.527 10.218 1.554 9.776 4.28 22.729l1.439-1.493c-1.998-12.953-5.445-11.392-4.602-21-.623-.019-1.117-.233-1.117-.233"/><path d="m29.22 48.49c8.313 3.105 20.813-.063 27.938-3.354-3.188 7.454-19.688 11.428-27.938 3.354"/><path d="m25.09 7.168c-.59-1.117-1.793-1.01-2.598-.667.102-1.167 3.053-2.066 2.598.667"/><path d="m31.17 11.492c-.251-2.199-1.01-4.376-2.349-6.158.714 1.866 1.072 3.857 1.078 5.854.002.896.211 4.091-1.377 3.674-.979-.256-1-1.094-1.282-1.956-.432-1.351-1.191-2.906-1.098-4.339-.373 1.405.072 3.094.236 4.518.095.828.71 3.065-.384 3.371-.603.172-1.302-.223-1.803-.513-.19-.111-.332-.926-.402-1.153-.43-1.399-1.202-3.01-1.103-4.476-.377 1.325-.011 2.92.108 4.277.074.84.53 2.665-.489 3.089-1.158.562-1.335-.802-1.549-1.515-.398-1.326-1.044-2.774-1.027-4.165-.403 1.692.07 3.675.149 5.409.04.862-1.903 1.64-2.628 1.099-1.136-.848-1.327-2.834-1.457-4.117.342.432.831.987 1.448.932-.527-.557-.751-1.515-1.103-2.191-.324-.557-.979-1.883-1.752-1.905.119.239.769 1.876.669 2.048-.313.543-.618 1.092-.968 1.611-.297.438-1.157 1.827-1.854 1.408-.752-.454-.996-1.708-1.223-2.476.059.974.029 2.522.999 3.106.919.555 1.965-.321 2.573-.945.209 2.04 1.066 4.699 3.618 4.528.538-.036 1.066-.206 1.554-.432.402-.187.856-.658 1.278-.531 1.068.321 2.218.115 2.983-.728.357-.393.261-.637.795-.505.568.127 1.156.153 1.721-.01.461-.122.876-.407 1.188-.763.18-.203.316-.433.424-.68.172-.395.368-.186.768-.201 2.592-.096 2.504-3.312 2.259-5.165"/><path d="m28.746 5.798c-.59-1.117-1.793-1.01-2.599-.668.103-1.166 3.053-2.067 2.599.668"/><path d="m22.18 8.68c-.59-1.117-1.793-1.01-2.599-.668.103-1.167 3.053-2.067 2.599.668"/><path d="m18.807 10.258c-.59-1.117-1.793-1.01-2.598-.668.102-1.167 3.052-2.067 2.598.668"/></g></g></symbol><symbol id="1f628" viewBox="0 0 64 64" preserveAspectRatio="xMidYMid meet"><rect x="0" y="0" width="64" height="64" style="stroke:none;fill:none;"/><g xmlns="http://www.w3.org/2000/svg"><circle cx="32" cy="32" fill="#ffdd67" r="30"/><path d="m16 49.5c0-6.461 5.314-14 16-14 10.689 0 16 7.539 16 14 0 0-5.311 0-16 0-10.686 0-16 0-16 0" fill="#fff"/><path d="m15.916 50l2.084-8h28l2.08 8z" fill="#664e27"/><path d="m15.917 48.699l1-3h30.16l1 3z" fill="#fff"/><path d="m32 34.498c11.04 0 17 7.729 17 15v1h-34v-1c0-7.271 5.959-15 17-15m14.957 14c-.523-5.99-5.729-12-14.957-12s-14.432 6.01-14.955 12h29.912" fill="#664e27"/><g fill="#ba9436"><circle cx="46.09" cy="23.786" r="9"/><circle cx="17.906" cy="23.786" r="9"/></g><circle cx="45.5" cy="21.785" fill="#fff" r="9"/><circle cx="45.5" cy="21.785" fill="#664e27" r="4.5"/><circle cx="18.5" cy="21.785" fill="#fff" r="9"/><circle cx="18.5" cy="21.785" fill="#664e27" r="4.5"/></g></symbol><symbol id="1f638" viewBox="0 0 64 64" preserveAspectRatio="xMidYMid meet"><rect x="0" y="0" width="64" height="64" style="stroke:none;fill:none;"/><g xmlns="http://www.w3.org/2000/svg"><path d="m60.857 1.999c1.797 13.431 1.51 24.23-1.166 31.13l-24.807-18.455c4.928-5.093 14.93-11.218 25.973-12.677" fill="#dadee0"/><path d="m57.734 32.18l-10.255-13.253c0 0 1.938-7.285 11.616-12.438 2.901 11.656-1.361 25.691-1.361 25.691" fill="#f7a4a4"/><path d="m53.831 29.16l-6.352-8.209c0 0 2.574-5.02 8.568-8.216-3.497 7.563-2.216 16.425-2.216 16.425" fill="#f78d8d"/><path d="m3.135 1.999c-1.797 13.431-1.51 24.23 1.166 31.13l24.808-18.455c-4.928-5.093-14.931-11.218-25.974-12.677" fill="#dadee0"/><path d="m6.258 32.18l10.255-13.253c0 0-1.938-7.285-11.616-12.438-2.901 11.656 1.361 25.691 1.361 25.691" fill="#f7a4a4"/><path d="m10.161 29.16l6.352-8.209c0 0-2.574-5.02-8.568-8.216 3.497 7.563 2.216 16.425 2.216 16.425" fill="#f78d8d"/><path d="m58.19 50.753c.845-.881 1.415-1.633 1.661-2.162 1.63-2.643 2.144-5.342 2.144-5.342l-2 .424c0 0 2.318-2.463 1.691-7.793l-1.945 2.102c0 0 1.945-5.41.254-10.4l-2.152 1.588c0 0 .654-2.031.053-3.422l-.932.729c0 0 1.689-4.665.154-6.625-.855 2.827-1.871 2.784-1.871 2.784s1.242-2.116.273-3c-.986 1.594-1.807.558-1.768.079.055-.637-.193-1.534 2.703-1.957-2.314-1.414-5.05-.43-5.05-.43s.098-1.489 2.123-1.43c-1.871-1.593-4.48-.648-4.48-.648l.006.017c-4.111-3.11-9.646-4.902-17.05-4.902-7.408 0-12.942 1.792-17.05 4.902l.006-.017c0 0-2.609-.944-4.48.648 2.027-.06 2.125 1.43 2.125 1.43s-2.742-.984-5.057.43c2.898.423 2.65 1.32 2.703 1.957.039.479-.779 1.515-1.768-.079-.967.887.275 3 .275 3s-1.016.043-1.871-2.784c-1.537 1.96.154 6.625.154 6.625l-.929-.73c-.602 1.391.053 3.422.053 3.422l-2.154-1.588c-1.691 4.99.254 10.4.254 10.4l-1.946-2.101c-.625 5.33 1.691 7.793 1.691 7.793l-2-.424c0 0 .513 2.694 2.141 5.339.249.534.833 1.304 1.698 2.202.023.024.044.049.067.072v-.004c4.065 4.183 14.213 11.141 26.09 11.141 11.882 0 22.03-6.96 26.09-11.142v.005c.034-.036.065-.072.099-.109" fill="#dadee0"/><g fill="#94989b"><path d="m37.682 10.762c-1.762-.258-3.65-.401-5.686-.401s-3.926.144-5.689.401c.736 3.856 2.75 6.583 5.688 11.585 2.98-5.079 4.964-7.756 5.687-11.585"/><path d="m46.809 13.784c-1.908-1.092-4.072-1.944-6.523-2.523.59 2.29 1.857 3.921 3.627 6.935 1.237-2.111 2.216-2.663 2.896-4.412"/><path d="m23.705 11.262c-2.451.579-4.615 1.431-6.521 2.522.686 1.765 1.666 2.323 2.891 4.411 1.794-3.057 3.048-4.664 3.63-6.933"/></g><g fill="#4c5359"><path d="m36.04 36.519c-.811-.945-3.299-1.02-4.04-1.02-.742 0-3.232.074-4.04 1.02-.576.672-.131 2.344 1.406 3.785.969.908 1.895 1.195 2.637 1.195.744 0 1.67-.287 2.639-1.195 1.535-1.442 1.982-3.114 1.404-3.785"/><path d="m49.33 44c0 6.04-5.758 13.1-17.337 13.1-11.583 0-17.337-7.05-17.337-13.1 0 0 5.755 0 17.337 0 11.579 0 17.337 0 17.337 0"/></g><path d="m33.686 45.34c-.531-.014-1.348.482-1.049 1.805.151.666 1.091 1.469 1.091 2.544 0 2.186-3.461 2.186-3.461 0 0-1.075.938-1.878 1.09-2.544.3-1.322-.518-1.818-1.046-1.805-1.441.038-3.802 1.601-3.802 4.243 0 2.971 2.458 5.379 5.49 5.379s5.488-2.408 5.488-5.379c-.002-2.642-2.364-4.205-3.801-4.243" fill="#363b40"/><path d="m41.574 54.55c-2.535-1.815-5.713-2.96-9.578-2.96s-7.04 1.145-9.576 2.96c2.531 1.814 5.711 2.964 9.576 2.964s7.04-1.15 9.578-2.964" fill="#ff717f"/><g fill="#fff"><path d="m16.882 43.705l3.842 5.605 3.842-5.605z"/><path d="m20.725 43.705h22.544v2.093h-22.544z"/><path d="m39.43 43.705l3.84 5.605 3.84-5.605z"/></g><g fill="#4c5359"><path d="m31.996 57.849c-11.854 0-18.25-7.135-18.25-13.849v-.751h36.5v.751c0 6.714-6.395 13.849-18.25 13.849m-16.395-13.1c.459 5.756 6.172 11.6 16.395 11.6s15.937-5.844 16.394-11.6h-32.789"/><path d="m27.584 32.519c-3.264-6.197-12.652-6.197-15.916 0-.195.379.32.922.95 1.354 4.136-3.271 9.88-3.271 14.02-.002.631-.431 1.147-.974.951-1.352"/><path d="m52.32 32.519c-3.264-6.197-12.653-6.197-15.917 0-.195.379.32.922.949 1.352 4.137-3.27 9.882-3.27 14.02 0 .631-.433 1.145-.974.951-1.352"/></g></g></symbol><linearGradient gradientUnits="objectBoundingBox" id="lrgd2-e1-repeat" spreadMethod="repeat" x1="20%" x2="40%" y1="0%" y2="0%"><stop offset="0%" stop-color="lightblue"/><stop offset="100%" stop-color="#ef5b2b"/></linearGradient><linearGradient gradientUnits="objectBoundingBox" id="lgrd2-black-white" spreadMethod="pad" x1="0%" x2="100%" y1="0%" y2="100%"><stop offset="0%" stop-color="black"/><stop offset="100%" stop-color="white"/></linearGradient><radialGradient fx="30%" fy="30%" gradientUnits="objectBoundingBox" id="rgrd11-a"><stop offset="0" stop-color="#f9caaa"/><stop offset="20%" stop-color="#f9caaa"/><stop offset="20%" stop-color="#f9ae7a"/><stop offset="40%" stop-color="#f9ae7a"/><stop offset="40%" stop-color="#f79959"/><stop offset="60%" stop-color="#f79959"/><stop offset="60%" stop-color="#fc9149"/><stop offset="80%" stop-color="#fc9149"/><stop offset="80%" stop-color="#f79959"/><stop offset="90%" stop-color="#f97821"/><stop offset="100%" stop-color="#f97821"/></radialGradient><radialGradient cx="45%" cy="45%" fx="30%" fy="30%" gradientUnits="objectBoundingBox" id="rgrd3-b"><stop offset="0%" stop-color="#f9a5a5"/><stop offset="50%" stop-color="#f98585"/><stop offset="100%" stop-color="#f96b6b"/></radialGradient><linearGradient gradientTransform="rotate(90)" gradientUnits="objectBoundingBox" id="lgrd2-d-reflect" spreadMethod="reflect" x1="0%" x2="5%" y1="0%" y2="5%"><stop offset="0%" stop-color="#e20709" stop-opacity="0.8"/><stop offset="5%" stop-color="#9ad346" stop-opacity="1"/></linearGradient><radialGradient gradientUnits="objectBoundingBox" id="rgrd-wave" r="5%" spreadMethod="reflect"><stop offset="0%" stop-color="navy" stop-opacity="1.00"/><stop offset="20%" stop-color="navy" stop-opacity="0.90"/><stop offset="40%" stop-color="navy" stop-opacity="0.65"/><stop offset="60%" stop-color="navy" stop-opacity="0.35"/><stop offset="80%" stop-color="navy" stop-opacity="0.10"/><stop offset="100%" stop-color="navy" stop-opacity="0.00"/></radialGradient><style type="text/css">.svg_text_unselect{-moz-user-select: none;-webkit-user-select: none;-ms-user-select: none;}
</style></defs><use xlink:href="#1f4bb" x="-33.906400" y="57.405000" width="141.100000" height="141.100000" id="e1_emoji"/><use xlink:href="#1f4aa" x="254.645000" y="58.154200" width="112.870000" height="112.870000" id="e3_emoji"/><use xlink:href="#1f4aa" x="416.992000" y="58.154200" width="112.870000" height="112.870000" id="e4_emoji" transform="matrix(-1 0 0 1 980.87 0)"/><use xlink:href="#1f628" x="341.235000" y="22.588300" width="139.160000" height="139.160000" id="e5_emoji"/><use xlink:href="#1f638" x="-23.668100" y="25.681300" width="119.060000" height="119.060000" id="e7_emoji"/><path d="M465.953717,104.798298l2.06,0l5.05,0l5.7,0l3.04,0.19l4.83,0.19l4.83,0.19l5.22,0.19l5.03,0.19l5.99,-0.77l5.99,-1.16l5.6,-1.35l4.64,-1.74l4.25,-1.74l3.87,-1.74l2.71,-1.74l1.55,-0.97l-0.19,0.77l-1.16,1.35l-1.74,2.13l-1.74,3.09l-1.74,3.09l-1.55,3.29l-1.35,3.48l-1.16,2.9l-0.97,2.32l-0.97,2.32l-1.16,1.93l-1.74,1.93l-1.74,2.32l-2.13,2.71l-2.13,2.71l-1.93,2.9l-2.13,2.71l-2.32,2.71l-2.32,2.51l-1.74,1.74l-1.74,1.35l-1.93,0.77l-2.32,0.58l-2.71,0l-3.09,-0.39l-2.9,-0.77l-3.09,-0.97l-2.9,-1.16l-2.9,-1.35l-2.51,-1.35l-2.13,-1.55l-1.93,-1.74l-1.61,-1.42l-1.29,-1.29l-1.55,-1.55" style="stroke:url(#rgrd-wave);stroke-width:18px;stroke-linecap:round;stroke-linejoin:round;fill:none" id="e9_freepath" transform="matrix(0.1875 0 0 0.1875 299.068 16.3475)"/><path d="M422.677665,33.453l-0.387,0l-1.005,0l-0.872,0l-0.345,0l-0.676,0.048l-0.628,0.097l-0.58,0.193l-0.338,0.242l-0.29,0.338l-0.145,0.387l-0.097,0.435l-0.048,0.483l0,0.531l0.048,0.531l0.097,0.483l0.097,0.483l0.145,0.435l0.29,0.483l0.338,0.483l0.338,0.483l0.387,0.387l0.435,0.387l0.387,0.387l0.387,0.435l0.338,0.435l0.193,0.387l0.145,0.387l0.145,0.387l0,0.483l-0.193,0.531l-0.242,0.483l-0.387,0.387l-0.435,0.387l-0.531,0.338l-0.628,0.29l-0.725,0.242l-0.676,0.145l-0.676,0.048l-0.725,0.048l-0.725,0.048l-0.725,0l-0.676,0l-0.725,0l-0.676,0l-0.676,0l-0.628,0l-0.58,0l-0.531,-0.048l-0.58,-0.097l-0.531,-0.145l-0.435,-0.242l-0.435,-0.29l-0.483,-0.338l-0.435,-0.435l-0.387,-0.483l-0.338,-0.499l-0.387,-0.515l-0.193,-0.58" style="stroke:url(#rgrd-wave);fill:none;stroke-width:5px" id="e11_freepath"/><text style="fill:black;font-family:Arial Black;font-size:20px;font-weight:bold" x="169.493" y="121.584" id="e12_texte">VS</text><text style="fill:black;font-family:Comic Sans;font-size:25px;font-weight:bolder;font-variant-caps:all-petite-caps" x="-16.0487" y="226.726" id="e13_texte">computer</text><text style="fill:black;font-family:Comic Sans;font-size:25px;font-weight:bolder;font-variant-caps:all-petite-caps" x="356.6" y="227.787" id="e2_texte">javascript</text></svg>